# xmcd
#
# Track frame offsets:
#	150
#	12058
#	46076
#	69986
#	88764
#	113688
#	131350
#	149967
#	188277
#	219426
#	238431
#	265761
#
# Disc length: 3982 seconds
# Revision: 0
# Processed by: cddbd v1.5.2PL0 Copyright (c) Steve Scherf et al.
# Submitted via: dBpowerAMP V12.0
#
DISCID=a30f8c0c
DTITLE=Gletschergrab - Gletschergrab CD2
DYEAR=2006
DGENRE=Hörbuch
TTITLE0=13
TTITLE1=14
TTITLE2=15
TTITLE3=16
TTITLE4=17
TTITLE5=18
TTITLE6=19
TTITLE7=20
TTITLE8=21
TTITLE9=22
TTITLE10=23
TTITLE11=24
EXTD=
EXTT0=
EXTT1=
EXTT2=
EXTT3=
EXTT4=
EXTT5=
EXTT6=
EXTT7=
EXTT8=
EXTT9=
EXTT10=
EXTT11=
PLAYORDER=
